<svg xmlns="http://www.w3.org/2000/svg" viewBox="0 0 38 24" width="38" height="24" aria-labelledby="pi-payu"><path opacity=".07" d="M35 0H3C1.3 0 0 1.3 0 3v18c0 1.7 1.4 3 3 3h32c1.7 0 3-1.3 3-3V3c0-1.7-1.4-3-3-3"/><path fill="#fff" d="M35 1c1.1 0 2 .9 2 2v18c0 1.1-.9 2-2 2H3c-1.1 0-2-.9-2-2V3c0-1.1.9-2 2-2z"/><style>.st0{opacity:7.000000e-02;enable-background:new}.st1{fill:#fff}</style><path class="st0" d="M35 0H3C1.3 0 0 1.3 0 3v18c0 1.7 1.4 3 3 3h32c1.7 0 3-1.3 3-3V3c0-1.7-1.4-3-3-3"/><path class="st1" d="M35 1c1.1 0 2 .9 2 2v18c0 1.1-.9 2-2 2H3c-1.1 0-2-.9-2-2V3c0-1.1.9-2 2-2z"/><path class="st0" d="M35 0H3C1.3 0 0 1.3 0 3v18c0 1.7 1.4 3 3 3h32c1.7 0 3-1.3 3-3V3c0-1.7-1.4-3-3-3"/><path class="st1" d="M35 1c1.1 0 2 .9 2 2v18c0 1.1-.9 2-2 2H3c-1.1 0-2-.9-2-2V3c0-1.1.9-2 2-2z"/><g transform="matrix(.85 0 0 .85 4.5 1.8)"><path id="Fill-17" style="fill-rule:evenodd;clip-rule:evenodd;fill:#3395ff" d="m16.2 9-.9 3 4.8-3-3 11.6h3.1l4.6-17.2z"/><path id="Fill-19" d="m11.1 15.7-1.4 4.9h6.5l2.6-10z" style="fill-rule:evenodd;clip-rule:evenodd;fill:#072654"/></g></svg>